grf
version=1
nRows=11
nColumns=37
inDegrees=no
endheader
time	ground_force_1_vx	ground_force_1_vy	ground_force_1_vz	ground_force_1_px	ground_force_1_py	ground_force_1_pz	ground_moment_1_mx	ground_moment_1_my	ground_moment_1_mz	ground_force_2_vx	ground_force_2_vy	ground_force_2_vz	ground_force_2_px	ground_force_2_py	ground_force_2_pz	ground_moment_2_mx	ground_moment_2_my	ground_moment_2_mz	ground_force_3_vx	ground_force_3_vy	ground_force_3_vz	ground_force_3_px	ground_force_3_py	ground_force_3_pz	ground_moment_3_mx	ground_moment_3_my	ground_moment_3_mz	ground_force_4_vx	ground_force_4_vy	ground_force_4_vz	ground_force_4_px	ground_force_4_py	ground_force_4_pz	ground_moment_4_mx	ground_moment_4_my	ground_moment_4_mz
      5.29000000	      0.00000000	     -0.00000000	      0.00000000	      0.00000000	      0.00000000	      0.00000000	      0.00000000	      0.00000000	      0.00000000	    -17.69217682	     61.57048798	   -745.36993408	   -365.04812154	  -1119.68837004	      0.00000000	      0.00000000	      0.00000000	   7537.16225327	    -21.68510171	    -35.05388452	   -651.78839111	   -367.91845669	   -736.01457627	      0.00000000	      0.00000000	     -0.00000000	  -8421.22731730	      0.00000000	     -0.00000000	      0.00000000	      0.00000000	      0.00000000	      0.00000000	      0.00000000	      0.00000000	      0.00000000
      5.30000000	      0.00000000	     -0.00000000	      0.00000000	      0.00000000	      0.00000000	      0.00000000	      0.00000000	      0.00000000	      0.00000000	    -26.60542297	     58.00544739	   -707.78143311	   -362.14098353	  -1120.06383739	      0.00000000	      0.00000000	      0.00000000	   7113.01067860	    -21.24205480	    -31.15755277	   -638.44390869	   -371.14731625	   -736.57460121	      0.00000000	      0.00000000	     -0.00000000	  -8374.59190022	      0.00000000	     -0.00000000	      0.00000000	      0.00000000	      0.00000000	      0.00000000	      0.00000000	      0.00000000	      0.00000000
      5.31000000	      0.00000000	     -0.00000000	      0.00000000	      0.00000000	      0.00000000	      0.00000000	      0.00000000	      0.00000000	      0.00000000	    -31.70692062	     53.41995621	   -668.49945068	   -360.34799508	  -1119.49765943	      0.00000000	      0.00000000	      0.00000000	   6589.08240235	    -10.55765163	    -33.96400359	   -616.60595703	   -374.58380136	   -736.31559624	      0.00000000	      0.00000000	     -0.00000000	  -7184.12689148	      0.00000000	     -0.00000000	      0.00000000	      0.00000000	      0.00000000	      0.00000000	      0.00000000	      0.00000000	      0.00000000
      5.32000000	      0.00000000	     -0.00000000	      0.00000000	      0.00000000	      0.00000000	      0.00000000	      0.00000000	      0.00000000	      0.00000000	    -40.84636688	     48.28940582	   -639.88568115	   -359.54139719	  -1118.10459088	      0.00000000	      0.00000000	      0.00000000	   6322.46217103	     -8.13241230	    -36.68410802	   -602.44561768	   -378.24439941	   -736.00869244	      0.00000000	      0.00000000	     -0.00000000	  -5964.80335978	      0.00000000	     -0.00000000	      0.00000000	      0.00000000	      0.00000000	      0.00000000	      0.00000000	      0.00000000	      0.00000000
      5.33000000	      0.00000000	     -0.00000000	      0.00000000	      0.00000000	      0.00000000	      0.00000000	      0.00000000	      0.00000000	      0.00000000	    -44.92377853	     43.37779617	   -625.01477051	   -361.87360650	  -1117.40632048	      0.00000000	      0.00000000	      0.00000000	   6460.65789517	     -6.47589035	    -34.94672719	   -586.49920654	   -381.66724175	   -736.20034808	      0.00000000	      0.00000000	     -0.00000000	  -5439.65787304	      0.00000000	     -0.00000000	      0.00000000	      0.00000000	      0.00000000	      0.00000000	      0.00000000	      0.00000000	      0.00000000
      5.34000000	      0.00000000	     -0.00000000	      0.00000000	      0.00000000	      0.00000000	      0.00000000	      0.00000000	      0.00000000	      0.00000000	    -39.12327957	     40.87288284	   -614.33038330	   -366.21964237	  -1117.51508879	      0.00000000	      0.00000000	     -0.00000000	   6679.79945410	     -4.06166110	    -31.03237117	   -568.61810303	   -383.98332684	   -735.90830222	      0.00000000	      0.00000000	     -0.00000000	  -5499.56853680	      0.00000000	     -0.00000000	      0.00000000	      0.00000000	      0.00000000	      0.00000000	      0.00000000	      0.00000000	      0.00000000
      5.35000000	      0.00000000	     -0.00000000	      0.00000000	      0.00000000	      0.00000000	      0.00000000	      0.00000000	      0.00000000	      0.00000000	    -25.19415855	     42.16811752	   -611.05926514	   -373.44781006	  -1117.23978737	      0.00000000	      0.00000000	      0.00000000	   6914.69566651	     -1.14736779	    -26.75562086	   -551.25006104	   -386.81605135	   -735.50891771	      0.00000000	      0.00000000	     -0.00000000	  -5873.02048334	      0.00000000	     -0.00000000	      0.00000000	      0.00000000	      0.00000000	      0.00000000	      0.00000000	      0.00000000	      0.00000000
      5.36000000	      0.00000000	     -0.00000000	      0.00000000	      0.00000000	      0.00000000	      0.00000000	      0.00000000	      0.00000000	      0.00000000	     -6.59247065	     45.05769730	   -615.74114990	   -382.89246982	  -1116.98346659	      0.00000000	      0.00000000	      0.00000000	   6650.71231132	      2.26473551	    -23.98608990	   -533.92675781	   -390.00418431	   -737.33057096	      0.00000000	      0.00000000	     -0.00000000	  -5905.40042229	      0.00000000	     -0.00000000	      0.00000000	      0.00000000	      0.00000000	      0.00000000	      0.00000000	      0.00000000	      0.00000000
      5.37000000	      0.00000000	     -0.00000000	      0.00000000	      0.00000000	      0.00000000	      0.00000000	      0.00000000	      0.00000000	      0.00000000	      9.75561810	     47.24840546	   -611.68579102	   -391.83545250	  -1117.02266805	      0.00000000	      0.00000000	      0.00000000	   6293.26929549	      4.08069397	    -24.46026456	   -523.72741699	   -392.67521734	   -736.80600396	      0.00000000	      0.00000000	     -0.00000000	  -6011.96419277	      0.00000000	     -0.00000000	      0.00000000	      0.00000000	      0.00000000	      0.00000000	      0.00000000	      0.00000000	      0.00000000
      5.38000000	      0.00000000	     -0.00000000	      0.00000000	      0.00000000	      0.00000000	      0.00000000	      0.00000000	      0.00000000	      0.00000000	     15.87947083	     46.94404984	   -595.20556641	   -397.70293056	  -1117.03122772	      0.00000000	      0.00000000	      0.00000000	   6236.65473789	      4.36532877	    -27.47725525	   -517.22424316	   -396.11602881	   -735.57311718	      0.00000000	      0.00000000	     -0.00000000	  -5929.03779939	      0.00000000	     -0.00000000	      0.00000000	      0.00000000	      0.00000000	      0.00000000	      0.00000000	      0.00000000	      0.00000000
      5.39000000	      0.00000000	     -0.00000000	      0.00000000	      0.00000000	      0.00000000	      0.00000000	      0.00000000	      0.00000000	      0.00000000	     12.37275696	     43.60061646	   -572.21429443	   -400.90963833	  -1117.04399776	      0.00000000	      0.00000000	     -0.00000000	   6184.08275756	      6.59215480	    -29.35938511	   -514.30029297	   -400.35221392	   -736.08498041	      0.00000000	      0.00000000	     -0.00000000	  -5593.94235346	      0.00000000	     -0.00000000	      0.00000000	      0.00000000	      0.00000000	      0.00000000	      0.00000000	      0.00000000	      0.00000000
